<?xml version="1.0" encoding="utf-8"?>
<!-- Generator: Adobe Illustrator 16.0.3, SVG Export Plug-In . SVG Version: 6.00 Build 0)  -->
<!DOCTYPE svg PUBLIC "-//W3C//DTD SVG 1.1//EN" "http://www.w3.org/Graphics/SVG/1.1/DTD/svg11.dtd">
<svg version="1.1" id="Layer_1" xmlns="http://www.w3.org/2000/svg" xmlns:xlink="http://www.w3.org/1999/xlink" x="0px" y="0px"
	 width="70px" height="70px" viewBox="0 0 70 70" enable-background="new 0 0 70 70" xml:space="preserve">
<g>
	<g>
		<g>
			<path fill="#35424B" d="M34.997,35.755c-0.17,0-0.338-0.053-0.481-0.156l-8.783-6.391c-0.366-0.266-0.446-0.778-0.18-1.143
				c0.265-0.366,0.778-0.446,1.143-0.181l8.302,6.04l8.305-6.04c0.364-0.265,0.876-0.186,1.143,0.181
				c0.266,0.366,0.186,0.877-0.181,1.143l-8.786,6.391C35.334,35.702,35.166,35.755,34.997,35.755L34.997,35.755z"/>
		</g>
		<g>
			<path fill="#35424B" d="M34.997,35.755c-0.452,0-0.818-0.366-0.818-0.818V17.343c0-0.453,0.366-0.818,0.818-0.818
				s0.818,0.366,0.818,0.818v17.594C35.815,35.389,35.449,35.755,34.997,35.755L34.997,35.755z"/>
		</g>
	</g>
	<g>
		<path fill="#35424B" d="M52.182,53.476H17.818c-0.453,0-0.818-0.366-0.818-0.818V41.073c0-0.452,0.366-0.818,0.818-0.818h10.636
			c0.453,0,0.818,0.366,0.818,0.818v2.313c0,0.451,0.368,0.818,0.818,0.818h9.818c0.45,0,0.818-0.367,0.818-0.818v-2.313
			c0-0.452,0.365-0.818,0.818-0.818h10.636c0.452,0,0.818,0.366,0.818,0.818v11.584C53,53.109,52.634,53.476,52.182,53.476
			L52.182,53.476z M18.636,51.839h32.727v-9.947h-9v1.495c0,1.354-1.101,2.455-2.454,2.455h-9.818c-1.354,0-2.455-1.102-2.455-2.455
			v-1.495h-9V51.839L18.636,51.839z"/>
	</g>
	<g>
		<g>
			<g>
				<path fill="#35424B" d="M17.818,41.892c-0.205,0-0.411-0.077-0.569-0.23c-0.325-0.314-0.333-0.833-0.02-1.157l6.613-6.823
					c0.318-0.324,0.834-0.332,1.157-0.02c0.325,0.315,0.333,0.833,0.02,1.157l-6.613,6.823
					C18.245,41.809,18.032,41.892,17.818,41.892L17.818,41.892z"/>
			</g>
		</g>
		<g>
			<g>
				<path fill="#35424B" d="M52.182,41.892c-0.214,0-0.427-0.083-0.588-0.25l-6.616-6.823c-0.313-0.324-0.305-0.842,0.02-1.157
					c0.324-0.313,0.842-0.305,1.157,0.02l6.615,6.823c0.313,0.324,0.306,0.843-0.019,1.157
					C52.593,41.814,52.387,41.892,52.182,41.892L52.182,41.892z"/>
			</g>
		</g>
	</g>
</g>
</svg>
