<?xml version="1.0" encoding="utf-8"?>
<!-- Generator: Adobe Illustrator 16.0.3, SVG Export Plug-In . SVG Version: 6.00 Build 0)  -->
<!DOCTYPE svg PUBLIC "-//W3C//DTD SVG 1.1//EN" "http://www.w3.org/Graphics/SVG/1.1/DTD/svg11.dtd">
<svg version="1.1" id="Layer_1" xmlns="http://www.w3.org/2000/svg" xmlns:xlink="http://www.w3.org/1999/xlink" x="0px" y="0px"
	 width="70px" height="70px" viewBox="0 0 70 70" enable-background="new 0 0 70 70" xml:space="preserve">
<g>
	<g>
		<g>
			<path fill="#FCC247" d="M38.407,22.437c-0.276,0-0.5,0.224-0.5,0.5v6c0,0.276,0.224,0.5,0.5,0.5h6c0.276,0,0.5-0.224,0.5-0.5
				s-0.224-0.5-0.5-0.5h-5.5v-5.5C38.907,22.66,38.684,22.437,38.407,22.437L38.407,22.437z"/>
		</g>
		<g>
			<path fill="#FCC247" d="M38.407,22.437c0.133,0,0.26,0.053,0.354,0.146l6,6c0.094,0.094,0.146,0.221,0.146,0.354v14.528
				c0,0.276-0.224,0.5-0.5,0.5H28.075c-0.276,0-0.5-0.224-0.5-0.5V22.937c0-0.276,0.224-0.5,0.5-0.5H38.407L38.407,22.437z
				 M28.575,23.437v19.528h15.332V29.144L38.2,23.437H28.575L28.575,23.437z"/>
		</g>
		<g>
			<path fill="#FCC247" d="M37.325,39.172H31.45c-0.276,0-0.5,0.225-0.5,0.5c0,0.276,0.224,0.5,0.5,0.5h5.875
				c0.276,0,0.5-0.224,0.5-0.5C37.825,39.396,37.602,39.172,37.325,39.172L37.325,39.172z"/>
		</g>
		<g>
			<path fill="#FCC247" d="M41.2,36.755h-9.75c-0.276,0-0.5,0.224-0.5,0.5s0.224,0.5,0.5,0.5h9.75c0.276,0,0.5-0.224,0.5-0.5
				S41.477,36.755,41.2,36.755L41.2,36.755z"/>
		</g>
		<g>
			<path fill="#FCC247" d="M41.2,34.338h-9.75c-0.276,0-0.5,0.224-0.5,0.5c0,0.276,0.224,0.5,0.5,0.5h9.75
				c0.276,0,0.5-0.224,0.5-0.5C41.7,34.562,41.477,34.338,41.2,34.338L41.2,34.338z"/>
		</g>
		<g>
			<path fill="#FCC247" d="M35.532,31.921H31.45c-0.276,0-0.5,0.224-0.5,0.5s0.224,0.5,0.5,0.5h4.082c0.276,0,0.5-0.224,0.5-0.5
				S35.809,31.921,35.532,31.921L35.532,31.921z"/>
		</g>
		<g>
			<path fill="#FCC247" d="M25.263,24.806c-0.276,0-0.5,0.224-0.5,0.5v20.125c0,0.827,0.673,1.5,1.5,1.5h15.333
				c0.275,0,0.5-0.224,0.5-0.5c0-0.275-0.225-0.5-0.5-0.5H26.263c-0.275,0-0.5-0.225-0.5-0.5V25.306
				C25.763,25.029,25.539,24.806,25.263,24.806L25.263,24.806z"/>
		</g>
	</g>
</g>
</svg>
