<?xml version="1.0" encoding="utf-8"?>
<!-- Generator: Adobe Illustrator 16.0.3, SVG Export Plug-In . SVG Version: 6.00 Build 0)  -->
<!DOCTYPE svg PUBLIC "-//W3C//DTD SVG 1.1//EN" "http://www.w3.org/Graphics/SVG/1.1/DTD/svg11.dtd">
<svg version="1.1" id="Layer_1" xmlns="http://www.w3.org/2000/svg" xmlns:xlink="http://www.w3.org/1999/xlink" x="0px" y="0px"
	 width="26.148px" height="26.443px" viewBox="0 0 26.148 26.443" enable-background="new 0 0 26.148 26.443" xml:space="preserve">
<path fill-rule="evenodd" clip-rule="evenodd" d="M13.56,16.04c0.74,0.041,1.779,1.24,1.779,1.94v6.28H10.61v-6.28
	C10.79,16.62,11.96,16,12.96,16C13.09,16,13.39,16,13.56,16.04z M21.72,11.83v12.43h-5.551v-6.52
	C15.69,15.959,14.3,15.18,12.96,15.18c-1.09,0-2.43,0.57-3.04,2.061C9.88,17.36,9.79,17.65,9.79,17.78v6.48H4.24V11.75l8.72-7.72
	L21.72,11.83z M15.43,5.11c0.61,0.53,1.22,1.11,1.819,1.6c0.391,0.34,0.78,0.75,1.26,1.12c1.91,1.73,3.951,3.47,5.9,5.24
	c0.051,0.04,0.09,0.13,0.09,0.21c0,0.25-0.26,0.41-0.39,0.41c-0.3,0-1.56-1.28-1.61-1.28V25H3.41V12.41
	c-0.22,0.17-1.3,1.28-1.6,1.28c-0.35,0-0.31-0.33-0.31-0.41v-0.17c0.74-0.66,1.52-1.4,2.26-2.02C6.8,8.41,12.87,3,12.96,3
	C13.09,3,14.61,4.4,15.43,5.11z"/>
</svg>
