<?xml version="1.0" encoding="utf-8"?>
<!-- Generator: Adobe Illustrator 16.0.3, SVG Export Plug-In . SVG Version: 6.00 Build 0)  -->
<!DOCTYPE svg PUBLIC "-//W3C//DTD SVG 1.1//EN" "http://www.w3.org/Graphics/SVG/1.1/DTD/svg11.dtd">
<svg version="1.1" id="Layer_1" xmlns="http://www.w3.org/2000/svg" xmlns:xlink="http://www.w3.org/1999/xlink" x="0px" y="0px"
	 width="70px" height="70px" viewBox="0 0 70 70" enable-background="new 0 0 70 70" xml:space="preserve">
<g>
	<g>
		<g>
			<path fill="#FCC247" d="M38.189,19.971c0.315,0,0.57,0.256,0.572,0.571v6.281h6.28c0.315,0,0.569,0.256,0.569,0.572
				s-0.256,0.571-0.569,0.571h-6.854c-0.315,0-0.569-0.256-0.569-0.571v-6.853C37.619,20.226,37.875,19.971,38.189,19.971
				L38.189,19.971z"/>
		</g>
		<g>
			<path fill="#FCC247" d="M38.189,19.971c0.151,0,0.297,0.06,0.402,0.167l6.854,6.853c0.106,0.107,0.168,0.252,0.168,0.404v16.593
				c0,0.313-0.258,0.57-0.572,0.57H26.39c-0.313,0-0.569-0.257-0.569-0.57V20.542c0-0.316,0.256-0.571,0.569-0.571H38.189
				L38.189,19.971z M26.961,21.113v22.304h17.512V27.631l-6.52-6.518H26.961L26.961,21.113z"/>
		</g>
	</g>
</g>
<g>
	<g>
		<g>
			<path fill="#FCC247" d="M36.325,48.016c-2.935,0-5.324-2.391-5.325-5.326c0.001-2.938,2.391-5.325,5.326-5.325
				c2.938,0,5.326,2.389,5.328,5.323C41.654,45.624,39.264,48.016,36.325,48.016L36.325,48.016z M36.326,37.924
				c-2.625,0-4.762,2.137-4.764,4.766c0.001,2.625,2.137,4.764,4.763,4.764c2.629,0,4.767-2.139,4.767-4.766
				C41.09,40.061,38.953,37.924,36.326,37.924L36.326,37.924z"/>
		</g>
		<g>
			<path fill="#FCC247" d="M33.174,42.688h-0.563c0-2.049,1.667-3.717,3.715-3.717v0.563C34.588,39.532,33.174,40.947,33.174,42.688
				L33.174,42.688z"/>
		</g>
		<g>
			<path fill="#FCC247" d="M43.009,49.866c-0.071,0-0.144-0.026-0.198-0.081l-3.131-3.133c-0.111-0.108-0.111-0.288,0-0.397
				c0.108-0.11,0.284-0.11,0.396,0l3.134,3.132c0.108,0.109,0.108,0.289,0,0.398C43.152,49.84,43.08,49.866,43.009,49.866
				L43.009,49.866z"/>
		</g>
	</g>
</g>
</svg>
