<?xml version="1.0" encoding="utf-8"?>
<!-- Generator: Adobe Illustrator 16.0.3, SVG Export Plug-In . SVG Version: 6.00 Build 0)  -->
<!DOCTYPE svg PUBLIC "-//W3C//DTD SVG 1.1//EN" "http://www.w3.org/Graphics/SVG/1.1/DTD/svg11.dtd">
<svg version="1.1" id="Layer_1" xmlns="http://www.w3.org/2000/svg" xmlns:xlink="http://www.w3.org/1999/xlink" x="0px" y="0px"
	 width="70px" height="70px" viewBox="0 0 70 70" enable-background="new 0 0 70 70" xml:space="preserve">
<g>
	<g>
		<path fill="#FCC247" d="M38.191,19.971c-0.315,0-0.57,0.255-0.57,0.571v6.853c0,0.315,0.255,0.571,0.57,0.571h6.853
			c0.315,0,0.571-0.255,0.571-0.571s-0.256-0.572-0.571-0.572h-6.28v-6.281C38.764,20.227,38.508,19.971,38.191,19.971
			L38.191,19.971z"/>
	</g>
</g>
<g>
	<g>
		<path fill="#FCC247" d="M38.191,19.971c0.151,0,0.297,0.06,0.404,0.167l6.852,6.853c0.107,0.106,0.168,0.251,0.168,0.404v16.593
			c0,0.314-0.256,0.57-0.571,0.57H26.392c-0.314,0-0.57-0.256-0.57-0.57V20.542c0-0.316,0.256-0.571,0.57-0.571H38.191
			L38.191,19.971z M26.963,21.113v22.304h17.51V27.631l-6.518-6.518H26.963L26.963,21.113z"/>
	</g>
</g>
<g>
	<g>
		<g>
			<path fill="#FCC247" d="M40.887,38.057c-0.068-0.014-0.13-0.053-0.171-0.115l-2.339-3.529c-0.082-0.124-0.048-0.29,0.075-0.371
				l10.759-7.13c0.124-0.081,0.289-0.048,0.372,0.075l2.339,3.53c0.081,0.123,0.049,0.289-0.074,0.37l-10.762,7.132
				C41.023,38.059,40.952,38.07,40.887,38.057z M38.971,34.338l2.043,3.083l10.313-6.833l-2.043-3.084L38.971,34.338z"/>
		</g>
		<g>
			<path fill="#FCC247" d="M39.716,36.291c-0.065-0.014-0.129-0.053-0.17-0.113c-0.08-0.125-0.047-0.289,0.075-0.373l8.406-5.57
				c0.123-0.081,0.289-0.047,0.371,0.075c0.08,0.124,0.047,0.289-0.076,0.371l-8.406,5.571
				C39.855,36.293,39.783,36.305,39.716,36.291z"/>
		</g>
		<g>
			<path fill="#FCC247" d="M36.9,38.156c-0.021-0.004-0.039-0.008-0.059-0.018c-0.135-0.063-0.195-0.222-0.132-0.354l1.646-3.631
				c0.062-0.134,0.221-0.194,0.354-0.134c0.136,0.06,0.194,0.219,0.134,0.353l-1.646,3.631C37.145,38.121,37.02,38.182,36.9,38.156z
				"/>
		</g>
		<g>
			<path fill="#FCC247" d="M36.9,38.156c-0.121-0.023-0.211-0.129-0.213-0.256c-0.006-0.146,0.11-0.271,0.258-0.273l3.986-0.102
				c0.147-0.002,0.271,0.115,0.272,0.262c0.005,0.148-0.111,0.271-0.259,0.275l-3.985,0.1C36.939,38.164,36.919,38.16,36.9,38.156z"
				/>
		</g>
		<g>
			<path fill="#FCC247" d="M49.292,32.486c-0.067-0.014-0.13-0.053-0.169-0.114l-2.34-3.53c-0.083-0.125-0.049-0.29,0.074-0.372
				c0.123-0.082,0.289-0.048,0.371,0.075l2.338,3.532c0.082,0.123,0.049,0.289-0.074,0.371
				C49.432,32.487,49.357,32.499,49.292,32.486z"/>
		</g>
	</g>
</g>
</svg>
