<?xml version="1.0" encoding="utf-8"?>
<!-- Generator: Adobe Illustrator 16.0.3, SVG Export Plug-In . SVG Version: 6.00 Build 0)  -->
<!DOCTYPE svg PUBLIC "-//W3C//DTD SVG 1.1//EN" "http://www.w3.org/Graphics/SVG/1.1/DTD/svg11.dtd">
<svg version="1.1" id="Layer_1" xmlns="http://www.w3.org/2000/svg" xmlns:xlink="http://www.w3.org/1999/xlink" x="0px" y="0px"
	 width="70px" height="70px" viewBox="0 0 70 70" enable-background="new 0 0 70 70" xml:space="preserve">
<g>
	<g>
		<g>
			<path fill="#FFFFFF" d="M35.679,30.252l3.028-2.995c0.595,0.359,0.899,0.417,1.121,0.417c0.24,0,0.464-0.089,0.626-0.248
				l2.052-2.029c0.314-0.313,1.152-1.142-4.093-6.446c-1.024-1.034-4.466-4.412-5.776-4.412c-0.241,0-0.462,0.089-0.625,0.249
				l-2.052,2.03c-0.468,0.461-0.236,1.11,0.149,1.75L19.249,29.31c-0.595-0.361-0.897-0.418-1.12-0.418
				c-0.243,0-0.464,0.089-0.625,0.249l-2.053,2.03c-0.314,0.311-1.154,1.142,4.094,6.446c4.381,4.428,5.396,4.428,5.731,4.428
				c0.333,0,0.549-0.145,0.671-0.264L28,39.748c0.464-0.459,0.231-1.109-0.15-1.746l3.027-2.997l18.81,19.018
				c0.678,0.682,1.496,1.045,2.367,1.045l0,0c1.345,0,2.661-0.904,3.203-2.203c0.519-1.24,0.231-2.586-0.766-3.596L35.679,30.252z
				 M26.362,38.301c0.227,0.328,0.347,0.541,0.411,0.676l-1.621,1.604c-0.516-0.236-1.933-1.256-4.604-3.957
				c-2.334-2.362-3.57-4.061-3.872-4.678l1.587-1.571c0.127,0.063,0.328,0.181,0.624,0.384l3.367,3.402l1.003-0.991l-2.919-2.951
				L31.01,19.663l3.171,3.206l1.003-0.992l-3.619-3.658c-0.202-0.298-0.318-0.504-0.38-0.628l1.591-1.57
				c0.614,0.31,2.301,1.563,4.635,3.925c2.333,2.359,3.569,4.06,3.873,4.678l-1.588,1.571c-0.134-0.066-0.348-0.188-0.673-0.418
				l-0.48-0.339l-4.858,4.805l0,0l-2.799,2.767l0,0l-4.854,4.804L26.362,38.301z M53.956,52.322
				c-0.324,0.771-1.123,1.334-1.902,1.334l0,0c-0.493,0-0.95-0.211-1.364-0.627L31.881,34.013l2.797-2.768l18.81,19.016
				C54.3,51.08,54.13,51.902,53.956,52.322z"/>
			<path fill="#FFFFFF" d="M14.489,55.459h22.484v-3.066c0-2.121-1.727-3.848-3.847-3.848H18.335c-2.122,0-3.846,1.727-3.846,3.848
				V55.459z M15.901,52.393c0-1.344,1.092-2.436,2.435-2.436h14.793c1.342,0,2.435,1.092,2.435,2.436v1.656H15.901V52.393z"/>
		</g>
	</g>
</g>
</svg>
