<?xml version="1.0" encoding="utf-8"?>
<!-- Generator: Adobe Illustrator 16.0.3, SVG Export Plug-In . SVG Version: 6.00 Build 0)  -->
<!DOCTYPE svg PUBLIC "-//W3C//DTD SVG 1.1//EN" "http://www.w3.org/Graphics/SVG/1.1/DTD/svg11.dtd">
<svg version="1.1" id="Layer_1" xmlns="http://www.w3.org/2000/svg" xmlns:xlink="http://www.w3.org/1999/xlink" x="0px" y="0px"
	 width="70px" height="70px" viewBox="0 0 70 70" enable-background="new 0 0 70 70" xml:space="preserve">
<g>
	<path fill="#B8C2C7" d="M32.281,31.573c-4.063,0-8.383-1.139-8.383-3.25s4.319-3.251,8.383-3.251c4.064,0,8.384,1.14,8.384,3.251
		S36.346,31.573,32.281,31.573L32.281,31.573z M32.281,26.072c-4.574,0-7.383,1.312-7.383,2.251s2.809,2.25,7.383,2.25
		c4.575,0,7.384-1.311,7.384-2.25S36.856,26.072,32.281,26.072L32.281,26.072z"/>
</g>
<g>
	<path fill="#B8C2C7" d="M32.281,31.573c-4.063,0-8.383-1.139-8.383-3.25c0-0.276,0.224-0.5,0.5-0.5s0.5,0.224,0.5,0.5
		c0,0.939,2.809,2.25,7.383,2.25c4.575,0,7.384-1.311,7.384-2.25c0-0.276,0.224-0.5,0.5-0.5s0.5,0.224,0.5,0.5
		C40.665,30.435,36.346,31.573,32.281,31.573L32.281,31.573z"/>
</g>
<g>
	<path fill="#B8C2C7" d="M32.281,34.679c-4.063,0-8.383-1.139-8.383-3.25c0-0.276,0.224-0.5,0.5-0.5s0.5,0.224,0.5,0.5
		c0,0.939,2.809,2.25,7.383,2.25c0.458,0,0.908-0.014,1.345-0.04c0.271-0.025,0.512,0.193,0.529,0.469
		c0.017,0.275-0.192,0.513-0.469,0.529C33.23,34.665,32.761,34.679,32.281,34.679L32.281,34.679z"/>
</g>
<g>
	<path fill="#B8C2C7" d="M24.398,31.929c-0.276,0-0.5-0.224-0.5-0.5V28.36c0-0.276,0.224-0.5,0.5-0.5s0.5,0.224,0.5,0.5v3.068
		C24.898,31.705,24.675,31.929,24.398,31.929L24.398,31.929z"/>
</g>
<g>
	<path fill="#B8C2C7" d="M40.165,31.608c-0.276,0-0.5-0.224-0.5-0.5V28.36c0-0.276,0.224-0.5,0.5-0.5s0.5,0.224,0.5,0.5v2.748
		C40.665,31.385,40.441,31.608,40.165,31.608L40.165,31.608z"/>
</g>
<g>
	<path fill="#B8C2C7" d="M31.704,40.644c-0.004,0-0.009,0-0.013,0c-3.707-0.095-6.66-1.023-7.522-2.367
		c-0.149-0.232-0.082-0.542,0.15-0.691c0.231-0.149,0.542-0.082,0.691,0.15c0.563,0.878,3.048,1.815,6.706,1.908
		c0.276,0.007,0.494,0.236,0.487,0.513C32.197,40.428,31.975,40.644,31.704,40.644L31.704,40.644z"/>
</g>
<g>
	<path fill="#B8C2C7" d="M32.661,43.753c-4.308,0-8.763-1.214-8.763-3.246c0-0.276,0.224-0.5,0.5-0.5s0.5,0.224,0.5,0.5
		c0,0.895,3.096,2.246,7.763,2.246c0.276,0,0.5,0.224,0.5,0.5S32.938,43.753,32.661,43.753L32.661,43.753z"/>
</g>
<g>
	<path fill="#B8C2C7" d="M29.973,35.793c-4.063,0-8.383-1.139-8.383-3.25c0-0.677,0.452-1.644,2.605-2.404
		c0.255-0.093,0.546,0.044,0.638,0.306c0.092,0.26-0.045,0.546-0.306,0.638c-1.195,0.422-1.938,0.981-1.938,1.461
		c0,0.939,2.809,2.25,7.383,2.25c0.906,0,1.791-0.054,2.631-0.16c0.271-0.037,0.523,0.158,0.559,0.434
		c0.034,0.273-0.159,0.523-0.434,0.559C31.848,35.736,30.921,35.793,29.973,35.793L29.973,35.793z"/>
</g>
<g>
	<path fill="#B8C2C7" d="M29.973,38.898c-4.063,0-8.383-1.139-8.383-3.25c0-0.276,0.224-0.5,0.5-0.5s0.5,0.224,0.5,0.5
		c0,0.939,2.809,2.25,7.383,2.25c0.603,0,1.203-0.024,1.783-0.071c0.267-0.021,0.517,0.183,0.539,0.457
		c0.022,0.275-0.182,0.517-0.457,0.539C31.23,38.873,30.603,38.898,29.973,38.898L29.973,38.898z"/>
</g>
<g>
	<path fill="#B8C2C7" d="M22.09,36.148c-0.276,0-0.5-0.224-0.5-0.5V32.58c0-0.276,0.224-0.5,0.5-0.5s0.5,0.224,0.5,0.5v3.068
		C22.59,35.925,22.366,36.148,22.09,36.148L22.09,36.148z"/>
</g>
<g>
	<path fill="#B8C2C7" d="M24.398,41.285c-0.276,0-0.5-0.224-0.5-0.5v-2.69c0-0.276,0.224-0.5,0.5-0.5s0.5,0.224,0.5,0.5v2.69
		C24.898,41.062,24.675,41.285,24.398,41.285L24.398,41.285z"/>
</g>
<g>
	<path fill="#B8C2C7" d="M39.708,47.577c-4.623,0-8.384-3.761-8.384-8.384c0-4.622,3.761-8.383,8.384-8.383s8.384,3.761,8.384,8.383
		C48.092,43.816,44.331,47.577,39.708,47.577L39.708,47.577z M39.708,31.811c-4.071,0-7.384,3.312-7.384,7.383
		s3.313,7.384,7.384,7.384s7.384-3.313,7.384-7.384S43.779,31.811,39.708,31.811L39.708,31.811z"/>
</g>
</svg>
