<?xml version="1.0" encoding="utf-8"?>
<!-- Generator: Adobe Illustrator 16.0.3, SVG Export Plug-In . SVG Version: 6.00 Build 0)  -->
<!DOCTYPE svg PUBLIC "-//W3C//DTD SVG 1.1//EN" "http://www.w3.org/Graphics/SVG/1.1/DTD/svg11.dtd">
<svg version="1.1" id="Layer_1" xmlns="http://www.w3.org/2000/svg" xmlns:xlink="http://www.w3.org/1999/xlink" x="0px" y="0px"
	 width="70px" height="70px" viewBox="0 0 70 70" enable-background="new 0 0 70 70" xml:space="preserve">
<g>
	<g>
		<g>
			<path fill="#FCC247" d="M33.965,43.087c-5.218,0-9.465-4.245-9.467-9.465c0.002-5.222,4.25-9.471,9.469-9.472
				c5.221,0,9.469,4.248,9.471,9.47C43.438,38.84,39.188,43.087,33.965,43.087L33.965,43.087z M33.967,25.15
				c-4.668,0.001-8.467,3.801-8.469,8.472c0.002,4.667,3.8,8.465,8.467,8.465c4.672,0,8.473-3.798,8.473-8.467
				C42.436,28.95,38.637,25.15,33.967,25.15L33.967,25.15z"/>
		</g>
		<g>
			<path fill="#FCC247" d="M28.361,33.617h-1c0-3.643,2.963-6.606,6.605-6.606v1C30.876,28.011,28.361,30.526,28.361,33.617
				L28.361,33.617z"/>
		</g>
		<g>
			<path fill="#FCC247" d="M45.846,46.383c-0.128,0-0.256-0.049-0.354-0.146l-5.568-5.566c-0.195-0.195-0.195-0.512,0-0.707
				s0.512-0.195,0.707,0l5.568,5.566c0.195,0.195,0.195,0.513,0,0.707C46.102,46.334,45.975,46.383,45.846,46.383L45.846,46.383z"/>
		</g>
	</g>
</g>
</svg>
